<?xml version="1.0" encoding="UTF-8" standalone="yes"?>
<!-- Created with sK1/UniConvertor (http://sk1project.org/) -->
<svg xmlns="http://www.w3.org/2000/svg" xmlns:xlink="http://www.w3.org/1999/xlink"
  width="228pt" height="88pt" viewBox="0 0 228 88"
  fill-rule="evenodd">
<g>
<g>
<path style="stroke:none; fill:#002843" d="M 227.805 88.0742L 0 88.0742L 0 0L 227.805 0L 227.805 88.0742zM 227.805 88.0742"/>
<path style="stroke:none; fill:#ffffff" d="M 90.1758 52.9336C 90.1758 60.2969 84.418 66.0859 77.0586 66.0859C 69.6953 66.0859 63.9414 60.2969 63.9414 52.9336C 63.9414 45.5391 69.6953 39.6523 77.0586 39.6523C 84.418 39.6523 90.1758 45.5391 90.1758 52.9336M 85.5898 52.9336C 85.5898 47.8164 81.8438 43.9336 77.0586 43.9336C 72.2734 43.9336 68.5273 47.8164 68.5273 52.9336C 68.5273 58.0547 72.2734 61.8359 77.0586 61.8359C 81.8438 61.8359 85.5898 58.0547 85.5898 52.9336"/>
<path style="stroke:none; fill:#ffffff" d="M 109.969 57.25C 109.969 62.5039 106.023 66.0859 101.77 66.0859C 99.4961 66.0859 97.6562 65.4141 96.25 64.2773L 96.25 74.9531L 91.832 74.9531L 91.832 48.8867L 96.2539 48.8867L 96.2539 50.2266C 97.6562 49.0547 99.4961 48.3828 101.773 48.3828C 106.023 48.3828 109.969 51.9961 109.969 57.25M 105.688 57.25C 105.688 54.1719 103.68 52.2305 101.004 52.2305C 98.6289 52.2305 96.25 54.1719 96.25 57.25C 96.25 60.3281 98.6289 62.2344 101.004 62.2344C 103.68 62.2383 105.688 60.3281 105.688 57.25"/>
<path style="stroke:none; fill:#ffffff" d="M 128.465 58.4219L 115.75 58.4219C 116.184 60.832 117.891 62.3047 119.934 62.3047C 121.238 62.3047 122.875 62.1367 124.082 60.0938L 128.031 60.9297C 126.559 64.4102 123.578 66.0859 119.93 66.0859C 115.215 66.0859 111.367 62.5039 111.367 57.25C 111.367 51.9961 115.215 48.3867 120 48.3867C 124.449 48.3867 128.297 51.832 128.465 56.918L 128.465 58.4219zM 115.883 55.3086L 123.949 55.3086C 123.379 53.168 121.773 52.2305 120 52.2305C 118.324 52.2305 116.418 53.2344 115.883 55.3086"/>
<path style="stroke:none; fill:#ffffff" d="M 146.484 55.4102L 146.484 65.582L 142.07 65.582L 142.07 56.3477C 142.07 54.0039 140.73 52.4336 138.691 52.4336C 136.18 52.4336 134.539 54.1055 134.539 58.1875L 134.539 65.582L 130.125 65.582L 130.125 48.8867L 134.539 48.8867L 134.539 50.3906C 135.844 49.0859 137.586 48.3828 139.793 48.3828C 143.809 48.3828 146.484 51.2617 146.484 55.4102"/>
<path style="stroke:none; fill:#ffffff" d="M 173.648 65.582L 170.102 65.582L 163.879 49.0859L 157.621 65.582L 154.109 65.582L 145.777 40.1523L 150.527 40.1523L 156.117 56.9492L 162.508 40.1523L 165.215 40.1523L 171.609 56.9492L 177.195 40.1523L 181.98 40.1523L 173.648 65.582zM 173.648 65.582"/>
<path style="stroke:none; fill:#ffffff" d="M 192.848 48.7852L 192.613 53.0352L 191.645 53.0352C 187.562 53.0352 185.688 55.543 185.688 60.1953L 185.688 65.582L 181.27 65.582L 181.27 48.8867L 185.688 48.8867L 185.688 51.7969C 186.926 49.8555 188.867 48.6523 191.676 48.6523C 192.113 48.6523 192.445 48.6523 192.848 48.7852"/>
<path style="stroke:none; fill:#ffffff" d="M 202.242 59.4258C 202.242 61.0664 203.012 61.9688 204.352 61.9688C 205.117 61.9688 206.258 61.6328 207.129 61.168L 208.398 64.8477C 206.66 65.7852 205.457 66.0859 204.051 66.0859C 200.07 66.0859 197.828 63.8086 197.828 59.7617L 197.828 52.5L 194.246 52.5L 194.246 48.8867L 197.828 48.8867L 197.828 42.8281L 202.242 41.4922L 202.242 48.8867L 208.703 48.8867L 208.703 52.5L 202.242 52.5L 202.242 59.4258zM 202.242 59.4258"/>
<path style="stroke:none; fill:#00ace0" d="M 106.281 74.8594L 105.289 74.8594L 104.355 72.2969L 103.414 74.8594L 102.426 74.8594L 100.902 70.1328L 102.172 70.1328L 102.961 72.6797L 103.949 70.1328L 104.758 70.1328L 105.742 72.6797L 106.539 70.1328L 107.805 70.1328L 106.281 74.8594zM 106.281 74.8594"/>
<path style="stroke:none; fill:#00ace0" d="M 112.539 73.832L 113.516 73.832L 113.516 74.8594L 110.367 74.8594L 110.367 73.832L 111.344 73.832L 111.344 71.1641L 110.367 71.1641L 110.367 70.1328L 113.516 70.1328L 113.516 71.1641L 112.539 71.1641L 112.539 73.832zM 112.539 73.832"/>
<path style="stroke:none; fill:#00ace0" d="M 119.688 74.8594L 118.816 73.832L 117.883 73.832L 117.883 74.8594L 116.688 74.8594L 116.688 70.1328L 118.891 70.1328C 120.133 70.1328 120.887 70.8672 120.887 71.9609C 120.887 72.6641 120.57 73.2305 120.023 73.5469L 121.184 74.8594L 119.688 74.8594zM 118.848 72.8047C 119.344 72.8047 119.754 72.4688 119.754 71.9609C 119.754 71.4609 119.344 71.1562 118.848 71.1562L 117.883 71.1562L 117.883 72.8047L 118.848 72.8047zM 118.848 72.8047"/>
<path style="stroke:none; fill:#00ace0" d="M 127.258 74.8594L 123.648 74.8594L 123.648 70.1328L 127.219 70.1328L 127.219 71.1562L 124.844 71.1562L 124.844 71.9648L 127.184 71.9648L 127.184 72.9922L 124.844 72.9922L 124.844 73.832L 127.258 73.832L 127.258 74.8594zM 127.258 74.8594"/>
<path style="stroke:none; fill:#00ace0" d="M 133.918 74.8594L 130.43 74.8594L 130.43 70.1328L 131.625 70.1328L 131.625 73.832L 133.918 73.832L 133.918 74.8594zM 133.918 74.8594"/>
<path style="stroke:none; fill:#00ace0" d="M 140.68 74.8594L 137.074 74.8594L 137.074 70.1328L 140.645 70.1328L 140.645 71.1562L 138.266 71.1562L 138.266 71.9648L 140.605 71.9648L 140.605 72.9922L 138.266 72.9922L 138.266 73.832L 140.68 73.832L 140.68 74.8594zM 140.68 74.8594"/>
<path style="stroke:none; fill:#00ace0" d="M 147.645 71.3984L 146.477 71.6367C 146.379 71.1562 146.055 71.0195 145.773 71.0195C 145.496 71.0195 145.262 71.1641 145.262 71.4258C 145.262 71.6094 145.363 71.7305 145.57 71.793L 146.488 72.0859C 147.266 72.3398 147.691 72.6992 147.691 73.4414C 147.691 74.5039 146.758 74.9531 145.828 74.9531C 144.805 74.9531 143.969 74.4102 143.852 73.5078L 145.078 73.2578C 145.176 73.7266 145.457 73.9258 145.867 73.9258C 146.215 73.9258 146.426 73.7656 146.426 73.5156C 146.426 73.3281 146.328 73.1953 146.066 73.1289L 145.191 72.875C 144.473 72.668 143.988 72.3008 143.988 71.5352C 143.988 70.5742 144.746 70.043 145.781 70.043C 146.762 70.043 147.488 70.5156 147.645 71.3984"/>
<path style="stroke:none; fill:#00ace0" d="M 153.895 71.3984L 152.727 71.6367C 152.625 71.1562 152.301 71.0195 152.023 71.0195C 151.742 71.0195 151.512 71.1641 151.512 71.4258C 151.512 71.6094 151.613 71.7305 151.816 71.793L 152.738 72.0859C 153.516 72.3398 153.938 72.6992 153.938 73.4414C 153.938 74.5039 153.008 74.9531 152.078 74.9531C 151.051 74.9531 150.219 74.4102 150.102 73.5078L 151.328 73.2578C 151.426 73.7266 151.707 73.9258 152.117 73.9258C 152.465 73.9258 152.676 73.7656 152.676 73.5156C 152.676 73.3281 152.578 73.1953 152.316 73.1289L 151.438 72.875C 150.723 72.668 150.238 72.3008 150.238 71.5352C 150.238 70.5703 150.996 70.043 152.027 70.043C 153.012 70.043 153.738 70.5156 153.895 71.3984"/>
<path style="stroke:none; fill:#00ace0" d="M 162.543 71.9648L 164.762 71.9648L 164.762 72.9922L 162.543 72.9922L 162.543 74.8555L 161.348 74.8555L 161.348 70.1328L 164.926 70.1328L 164.926 71.1562L 162.543 71.1562L 162.543 71.9648zM 162.543 71.9648"/>
<path style="stroke:none; fill:#00ace0" d="M 171.094 74.8594L 170.223 73.832L 169.289 73.832L 169.289 74.8594L 168.098 74.8594L 168.098 70.1328L 170.297 70.1328C 171.543 70.1328 172.293 70.8672 172.293 71.9609C 172.293 72.6641 171.977 73.2305 171.43 73.5469L 172.594 74.8594L 171.094 74.8594zM 170.254 72.8047C 170.754 72.8047 171.164 72.4688 171.164 71.9609C 171.164 71.4609 170.754 71.1562 170.254 71.1562L 169.289 71.1562L 169.289 72.8047L 170.254 72.8047zM 170.254 72.8047"/>
<path style="stroke:none; fill:#00ace0" d="M 178.668 74.8594L 175.059 74.8594L 175.059 70.1328L 178.629 70.1328L 178.629 71.1562L 176.254 71.1562L 176.254 71.9648L 178.59 71.9648L 178.59 72.9922L 176.254 72.9922L 176.254 73.832L 178.668 73.832L 178.668 74.8594zM 178.668 74.8594"/>
<path style="stroke:none; fill:#00ace0" d="M 185.445 74.8594L 181.84 74.8594L 181.84 70.1328L 185.406 70.1328L 185.406 71.1562L 183.031 71.1562L 183.031 71.9648L 185.371 71.9648L 185.371 72.9922L 183.031 72.9922L 183.031 73.832L 185.445 73.832L 185.445 74.8594zM 185.445 74.8594"/>
<path style="stroke:none; fill:#00ace0" d="M 190.727 70.1328C 192.23 70.1328 193.227 71.0781 193.227 72.4961C 193.227 73.9102 192.234 74.8594 190.727 74.8594L 188.617 74.8594L 188.617 70.1328L 190.727 70.1328zM 190.715 73.832C 191.527 73.832 192.027 73.2969 192.027 72.4961C 192.027 71.6914 191.527 71.1562 190.715 71.1562L 189.812 71.1562L 189.812 73.832L 190.715 73.832zM 190.715 73.832"/>
<path style="stroke:none; fill:#00ace0" d="M 200.75 72.5C 200.75 73.8789 199.617 74.9492 198.223 74.9492C 196.828 74.9492 195.691 73.8789 195.691 72.5C 195.691 71.1211 196.824 70.043 198.223 70.043C 199.621 70.043 200.75 71.125 200.75 72.5M 199.547 72.5C 199.547 71.7227 198.965 71.1211 198.223 71.1211C 197.48 71.1211 196.898 71.7227 196.898 72.5C 196.898 73.2773 197.48 73.8789 198.223 73.8789C 198.965 73.8789 199.547 73.2852 199.547 72.5zM 199.547 72.5"/>
<path style="stroke:none; fill:#00ace0" d="M 208.699 74.8594L 207.531 74.8594L 207.531 72.6133L 206.137 74.5312L 205.777 74.5312L 204.383 72.6172L 204.383 74.8594L 203.215 74.8594L 203.215 70.1328L 203.98 70.1328L 205.957 72.9141L 207.934 70.1328L 208.699 70.1328L 208.699 74.8594zM 208.699 74.8594"/>
<path style="stroke:none; fill:#ffffff" d="M 212.715 41.0625L 211.484 39.7266L 210.977 39.7266L 210.977 41.0625L 210.41 41.0625L 210.41 37.8984L 211.59 37.8984C 212.254 37.8984 212.656 38.2773 212.656 38.8086C 212.664 39.1758 212.445 39.5039 212.105 39.6328L 213.422 41.0625L 212.715 41.0625zM 211.59 39.2148C 211.922 39.2148 212.094 39.0391 212.094 38.8086C 212.094 38.582 211.922 38.4141 211.59 38.4141L 210.977 38.4141L 210.977 39.2148L 211.59 39.2148zM 211.59 39.2148"/>
<path style="stroke:none; fill:#ffffff" d="M 211.645 42.5938C 210.016 42.5938 208.699 41.2773 208.699 39.6523C 208.699 38.0273 210.016 36.707 211.641 36.707C 213.266 36.707 214.586 38.0234 214.586 39.6523C 214.586 41.2773 213.27 42.5938 211.645 42.5938M 211.645 37.125C 210.25 37.125 209.117 38.2578 209.117 39.6523C 209.117 41.0469 210.25 42.1758 211.645 42.1758C 213.039 42.1758 214.168 41.0469 214.168 39.6523C 214.168 38.2578 213.039 37.125 211.645 37.125zM 211.645 37.125"/>
<path style="stroke:none; fill:#ffffff" d="M 36.918 42.9062C 34.7891 42.9062 33.0586 44.6328 33.0586 46.7617C 33.0586 48.8945 34.7891 50.6211 36.918 50.6211C 39.0508 50.6211 40.7773 48.8945 40.7773 46.7617C 40.7734 44.6328 39.0508 42.9062 36.918 42.9062"/>
<path style="stroke:none; fill:#ffffff" d="M 13.2148 23.0586L 17.2344 27.0781C 22.2734 22.0352 29.2383 18.9258 36.918 18.9258C 44.5977 18.9258 51.5664 22.0391 56.6055 27.0781L 60.6211 23.0586C 54.5586 16.9961 46.1719 13.2148 36.918 13.2148C 27.668 13.2148 19.2812 16.9961 13.2148 23.0586"/>
<path style="stroke:none; fill:#ffffff" d="M 20.4609 30.3047L 24.4766 34.3203C 27.668 31.1328 32.0781 29.1641 36.918 29.1641C 41.7578 29.1641 46.1719 31.1328 49.3594 34.3203L 53.3789 30.3047C 49.1641 26.0898 43.3359 23.4531 36.9219 23.4531C 30.5039 23.4531 24.6758 26.0898 20.4609 30.3047"/>
<path style="stroke:none; fill:#ffffff" d="M 27.668 37.5117L 31.6836 41.5273C 34.5781 38.6406 39.2617 38.6406 42.1562 41.5273L 46.1719 37.5117C 43.7188 35.0586 40.3906 33.6836 36.918 33.6914C 33.3359 33.6914 30.0664 35.1484 27.668 37.5117"/>
<path style="stroke:none; fill:#00ace0" d="M 51.1719 36.4062C 53.2969 39.3203 54.5586 42.9062 54.5586 46.7617C 54.5586 56.4883 46.6445 64.4023 36.918 64.4023C 27.1953 64.4023 19.2812 56.4883 19.2812 46.7617C 19.2812 42.9062 20.5391 39.3203 22.668 36.4062L 18.6094 32.3516C 15.4609 36.3281 13.6094 41.3281 13.6094 46.7617C 13.6094 59.5977 24.082 70.0703 36.918 70.0703C 49.7539 70.0703 60.2305 59.5977 60.2305 46.7617C 60.2305 41.3281 58.3398 36.3281 55.2266 32.3516L 51.1719 36.4062zM 51.1719 36.4062"/>
</g>
</g>
</svg>